<svg width="256" height="256" viewBox="0 0 256 256" fill="none" xmlns="http://www.w3.org/2000/svg">
<g clip-path="url(#clip0_2358_117)">
<rect width="256" height="256" fill="white"/>
<path d="M128 24C155.583 24 182.035 34.9571 201.539 54.4609C221.043 73.9647 232 100.417 232 128C232 155.583 221.043 182.035 201.539 201.539C182.035 221.043 155.583 232 128 232C100.417 232 73.9647 221.043 54.4609 201.539C34.9571 182.035 24 155.583 24 128C24 100.417 34.9571 73.9647 54.4609 54.4609C73.9647 34.9571 100.417 24 128 24ZM128 256C161.948 256 194.505 242.514 218.51 218.51C242.514 194.505 256 161.948 256 128C256 94.0523 242.514 61.495 218.51 37.4903C194.505 13.4857 161.948 0 128 0C94.0523 0 61.495 13.4857 37.4903 37.4903C13.4857 61.495 0 94.0523 0 128C0 161.948 13.4857 194.505 37.4903 218.51C61.495 242.514 94.0523 256 128 256ZM184.5 104.5C189.2 99.8 189.2 92.2 184.5 87.55C179.8 82.9 172.2 82.85 167.55 87.55L112.05 143.05L88.55 119.55C83.85 114.85 76.25 114.85 71.6 119.55C66.95 124.25 66.9 131.85 71.6 136.5L103.6 168.5C108.3 173.2 115.9 173.2 120.55 168.5L184.5 104.5Z" fill="#333DAD"/>
</g>
<defs>
<clipPath id="clip0_2358_117">
<rect width="256" height="256" fill="white"/>
</clipPath>
</defs>
</svg>
